<?xml version="1.0" encoding="UTF-8"?><svg id="a" xmlns="http://www.w3.org/2000/svg" viewBox="0 0 793.28 378.3"><defs><style>.b{fill:#fff;}.c{fill:#ff3600;}.d{fill:#a212ff;}</style></defs><path class="c" d="M76.61,35.32C64.77,78.57,32.3,109.62,0,130.23l5.76,111.15c40.56,16.13,77.54,47.18,98.92,83.12l613.69,1.09c8.74-19.29,21.26-39.94,31.33-51.8,10.77-12.69,29.81-21.48,43.59-26.54l-1.15-154.65c-42.26-15.27-70.17-46.07-91.83-82.91-1.87-3.18-3.68-6.42-5.43-9.69L78.72,27.17c-.66,2.71-1.36,5.43-2.1,8.15Z"/><path class="b" d="M221.23,81.98c5.71,4.41,8.99,14.52,9.85,30.31,1.74,6.48,3.51,20.1,5.29,40.84-.77,2.87-2.37,5.02-4.79,6.45l-5.13,.28c-5.45,.3-9-14.59-10.64-44.65l-1.4-25.63c-.26-4.8,2.01-7.34,6.81-7.6Z"/><path class="b" d="M454.81,105.78c-10.05-5.1-15.22-10.33-15.51-15.69-.16-2.91,1.2-6.04,4.07-9.39,7.11-3.77,10.65-6.09,10.6-6.97l-.2-3.67c-1.1-2.39-3.29-3.5-6.57-3.32l-2.08,.11-1.6,.09-2.08,.11c-8.5,.46-14.54,7.21-18.14,20.24l.1,1.87c.37,6.79,2.84,13.07,7.42,18.84,12.67,8.02,19.08,13.48,19.24,16.39,.19,3.56-2.07,6.74-6.78,9.54-9.74,.53-14.48,3.22-14.22,8.07s3.13,7.31,8.62,7.8l2.08-.11,4.36-.24,2.08-.11c14.32-6.66,21.21-14.98,20.67-24.96-1.01-5.83-5.04-12.02-12.06-18.59Z"/><path class="b" d="M535.5,125.35c-.95,.52-1.84,1-2.72,1.47-.86-.48-1.78-.89-2.83-1.17-6.86,3.78-11.84,6.11-15,7.02-9.2-1.25-15.22-10.25-18.05-27.03-.72-13.27,5.09-22.76,17.4-28.48,4.64,.68,7.53,1,8.61,.94,.96-.05,1.69-.24,2.22-.53,1.61,.18,2.74,.26,3.32,.23,2.22-.12,3.29-.9,3.21-2.33l-.18-3.33c-4.85-4.78-9.39-7.06-13.64-6.83l-5.47,.3s-.02,0-.03,0c-.01,0-.02,0-.03,0l-5.48,.3c-1.75,.1-5,1.36-9.73,3.8-12.66,10.7-18.64,22.63-17.92,35.79,4.64,28.1,16.05,41.65,34.25,40.65,.99-.05,1.95-.15,2.89-.27,.87,.02,1.75,.02,2.65-.03,10.11-.55,17.98-4.62,23.59-12.2l-.18-3.26c-1.53-2.56-3.82-4.24-6.88-5.04Z"/><path class="b" d="M644.92,27.1l5.26-.29c4.42,2.91,6.8,7.39,7.13,13.44l.34,6.3c.23,4.3-2.02,8.31-6.78,12.04l-1.04,.06c-5.17-3.84-8.04-11.12-8.62-21.83l-.29-5.26c-.06-1.11,1.27-2.59,3.99-4.46Z"/><path class="b" d="M241.56,208.95c29.09,0,45.66,21.43,49.69,64.3v1.73c-5.38,4.68-8.59,7.02-9.61,7.02-6.92,0-11.73-12.17-14.42-36.52-6.79-11.6-15.35-17.4-25.66-17.4-11.92,0-20.47,7.53-25.66,22.59l1.63,8.75v10.38c0,6.22-2.14,10.28-6.44,12.21h-6.44c-4.74,0-7.4-13.9-7.97-41.71-2.82-5.13-6.57-8.04-11.25-8.75-19.22,4.81-28.83,15.25-28.83,31.33v20.86c0,1.67-1.6,3.4-4.81,5.19h-6.44c-5.77,0-9.52-22.59-11.25-67.76l3.17-1.73h4.81c.9,0,4.13,3.46,9.7,10.38,8.65-10.44,19.86-15.67,33.64-15.67h6.44c4.74,0,10.6,3.49,17.59,10.48,8.65-10.44,19.35-15.67,32.1-15.67Zm1.92,0c29.09,0,45.66,21.43,49.69,64.3v1.73c-5.38,4.68-8.59,7.02-9.61,7.02-6.92,0-11.73-12.17-14.42-36.52-6.79-11.6-15.35-17.4-25.66-17.4-11.92,0-20.47,7.53-25.66,22.59l1.63,8.75v10.38c0,6.22-2.14,10.28-6.44,12.21h-6.44c-4.74,0-7.4-13.9-7.97-41.71-2.82-5.13-6.57-8.04-11.25-8.75-19.22,4.81-28.83,15.25-28.83,31.33v20.86c0,1.67-1.6,3.4-4.81,5.19h-6.44c-5.77,0-9.52-22.59-11.25-67.76l3.17-1.73h4.81c.9,0,4.13,3.46,9.7,10.38,8.65-10.44,19.86-15.67,33.64-15.67h6.44c4.74,0,10.6,3.49,17.59,10.48,8.65-10.44,19.35-15.67,32.1-15.67Z"/><path class="d" d="M326.13,208.66h4.04c10.76,0,16.15,22.33,16.15,66.99v3.08c0,1.54-2.69,3.56-8.07,6.05-7.24,0-11.95-2.02-14.13-6.05-2.69-33.64-4.04-56-4.04-67.08l6.05-2.98Zm13.67-28.25c-2.54-3.57-6.61-5.2-10.64-5.71-3.6-.45-7.11-.11-10.3,2.16-2.87,2.04-3.46,4.55-5.72,8.03-.58,3.85-.49,8.94,2.28,12.83,2.34,3.3,5.21,5.76,8.9,6.45,3.87,.73,8.47-.37,11.93-2.83,3.49-4.03,5.63-7.73,5.63-7.73,0,0,1.44-3.64,.92-6.16-.41-1.98-1.76-5.29-3-7.05Z"/><path class="b" d="M475.87,208.95c29.09,0,45.66,21.43,49.69,64.3v1.73c-5.38,4.68-8.59,7.02-9.61,7.02-6.92,0-11.73-12.17-14.42-36.52-6.79-11.6-15.35-17.4-25.66-17.4-11.92,0-20.47,7.53-25.66,22.59l1.63,8.75v10.38c0,6.22-2.14,10.28-6.44,12.21h-6.44c-4.74,0-7.4-13.9-7.97-41.71-2.82-5.13-6.57-8.04-11.25-8.75-19.22,4.81-28.83,15.25-28.83,31.33v20.86c0,1.67-1.6,3.4-4.81,5.19h-6.44c-5.77,0-9.52-22.59-11.25-67.76l3.17-1.73h4.81c.9,0,4.13,3.46,9.7,10.38,8.65-10.44,19.86-15.67,33.64-15.67h6.44c4.74,0,10.6,3.49,17.59,10.48,8.65-10.44,19.35-15.67,32.1-15.67Zm1.92,0c29.09,0,45.66,21.43,49.69,64.3v1.73c-5.38,4.68-8.59,7.02-9.61,7.02-6.92,0-11.73-12.17-14.42-36.52-6.79-11.6-15.35-17.4-25.66-17.4-11.92,0-20.47,7.53-25.66,22.59l1.63,8.75v10.38c0,6.22-2.14,10.28-6.44,12.21h-6.44c-4.74,0-7.4-13.9-7.97-41.71-2.82-5.13-6.57-8.04-11.25-8.75-19.22,4.81-28.83,15.25-28.83,31.33v20.86c0,1.67-1.6,3.4-4.81,5.19h-6.44c-5.77,0-9.52-22.59-11.25-67.76l3.17-1.73h4.81c.9,0,4.13,3.46,9.7,10.38,8.65-10.44,19.86-15.67,33.64-15.67h6.44c4.74,0,10.6,3.49,17.59,10.48,8.65-10.44,19.35-15.67,32.1-15.67Z"/><path class="b" d="M630.42,262.77h-2.02c-18.26,7.82-31.37,11.73-39.31,11.73-6.54-.9-9.8-2.85-9.8-5.86v-2.02c16.66,0,31.72-11.12,45.17-33.35,0-14.87-13.1-23.42-39.31-25.66h-3.94c-15.38,0-25.21,11.82-29.5,35.46v11.82c0,20.82,11.79,33.93,35.37,39.31h5.96c25.18,0,39.6-7.88,43.25-23.64v-1.92c-2.05-3.91-4.01-5.86-5.87-5.86Zm-62.13-7.01l8.69-10.11-13.96-1.86,14.75-3.45-13.48-8.05,14.45,4.05-6.86-11.47,10.46,8.44-6.79-14.19,9.1,11.58,.4-13.57,3.97,12.99,2.82-19.16v19.16l12.56-12.35-8.49,16.73,13.39-5.44-15.14,13.2h12.15l-12.98,3,7.52,6.3-11.02-3.91,1.68,11.1-4.71-11.1-9.82,14.69,5.43-14.53-14.13,7.98Z"/><path class="b" d="M183.67,85.03l-.05-.99-1.23,.07c-7.93-5.61-18.29-8.1-31.13-7.4l-12.26,.67c-3,.16-6.09,1.7-9.27,4.61,2.08,25.32,3.67,37.95,4.78,37.88,1.63,29.88,6.07,44.62,13.32,44.23,35.1-6.08,51.91-22.89,50.4-50.42l-.37-6.79c-2.97-9.54-7.71-16.82-14.19-21.85Zm8.19,39.39s-3.08,6.06-8.27,12.76c-5.29,4.21-12.49,6.35-18.7,5.52-5.91-.79-10.68-4.45-14.69-9.48-4.73-5.95-5.31-14.02-4.73-20.18,3.28-5.71,4.01-9.76,8.38-13.24,4.87-3.88,10.42-4.73,16.17-4.32,6.44,.46,13.05,2.69,17.39,8.14,2.13,2.67,4.56,7.82,5.38,10.93,1.04,3.96-.93,9.86-.93,9.86Z"/><path class="b" d="M300.73,78.36l-.05-.99-1.23,.07c-7.93-5.61-18.29-8.1-31.13-7.4l-12.26,.67c-3,.16-6.09,1.7-9.27,4.61,2.08,25.32,3.67,37.95,4.78,37.88,1.63,29.88,6.07,44.62,13.32,44.23,35.1-6.08,51.91-22.89,50.4-50.42l-.37-6.79c-2.97-9.54-7.71-16.82-14.19-21.85Zm8.19,39.39s-3.08,6.06-8.27,12.76c-5.29,4.21-12.49,6.35-18.7,5.52-5.91-.79-10.68-4.45-14.69-9.48-4.73-5.95-5.31-14.02-4.73-20.18,3.28-5.71,4.01-9.76,8.38-13.24,4.87-3.88,10.42-4.73,16.17-4.32,6.44,.46,13.05,2.69,17.39,8.14,2.13,2.67,4.56,7.82,5.38,10.93,1.04,3.96-.93,9.86-.93,9.86Z"/><path class="b" d="M361.71,68.96c-.31,.02-.63,.13-.97,.34-.7-.15-1.37-.22-2.01-.18-4.85,.26-13.78,25-26.8,74.21l.14,2.56c1.48,2.47,2.84,3.67,4.09,3.6l2.57-.14,.02-.04c.11,.01,.22,.03,.32,.02l2.57-.14,9.28-18.36,40.66-2.22c.25,4.62,3.46,8.26,9.63,10.94,.74-.04,1.43-.24,2.09-.56,.28,.13,.53,.27,.82,.4,2.54-.14,4.6-1.94,6.17-5.41l-.14-2.56c-22.64-42.17-38.78-62.99-48.43-62.46Zm21.7,39.6s-2.07,4.07-5.55,8.57c-3.55,2.83-8.39,4.26-12.56,3.71-3.97-.53-7.17-2.99-9.86-6.36-3.18-3.99-3.57-9.41-3.18-13.55,2.2-3.83,2.69-6.55,5.63-8.89,3.27-2.6,6.99-3.17,10.86-2.9,4.32,.31,8.76,1.81,11.68,5.47,1.43,1.8,3.06,5.25,3.61,7.34,.7,2.66-.62,6.62-.62,6.62Z"/><path class="b" d="M585.03,56.5c-.31,.02-.63,.13-.97,.34-.7-.15-1.37-.22-2.01-.18-4.85,.26-13.78,25-26.8,74.21l.14,2.56c1.48,2.47,2.84,3.67,4.09,3.6l2.57-.14,.02-.04c.11,.01,.22,.03,.32,.02l2.57-.14,9.28-18.36,40.66-2.22c.25,4.62,3.46,8.26,9.63,10.94,.74-.04,1.43-.24,2.09-.56,.28,.13,.53,.27,.82,.4,2.54-.14,4.6-1.94,6.17-5.41l-.14-2.56c-22.64-42.17-38.78-62.99-48.43-62.46Zm21.7,39.6s-2.07,4.07-5.55,8.57c-3.55,2.83-8.39,4.26-12.56,3.71-3.97-.53-7.17-2.99-9.86-6.36-3.18-3.99-3.57-9.41-3.18-13.55,2.2-3.83,2.69-6.55,5.63-8.89,3.27-2.6,6.99-3.17,10.86-2.9,4.32,.31,8.76,1.81,11.68,5.47,1.43,1.8,3.06,5.25,3.61,7.34,.7,2.66-.62,6.62-.62,6.62Z"/><path class="d" d="M380.63,94.74c-2.94-3.69-7.41-5.2-11.77-5.51-3.9-.28-7.65,.3-10.95,2.92-2.96,2.36-3.46,5.1-5.68,8.97-.39,4.17,0,9.64,3.21,13.67,2.71,3.41,5.94,5.89,9.94,6.42,4.21,.56,9.08-.89,12.67-3.74,3.51-4.54,5.6-8.64,5.6-8.64,0,0,1.34-4,.63-6.68-.55-2.1-2.2-5.59-3.64-7.4Z"/><path class="d" d="M603.85,82.05c-2.94-3.69-7.41-5.2-11.77-5.51-3.9-.28-7.65,.3-10.95,2.92-2.96,2.36-3.46,5.1-5.68,8.97-.39,4.17,0,9.64,3.21,13.67,2.71,3.41,5.94,5.89,9.94,6.42,4.21,.56,9.08-.89,12.67-3.74,3.51-4.54,5.6-8.64,5.6-8.64,0,0,1.34-4,.63-6.68-.55-2.1-2.2-5.59-3.64-7.4Z"/><g><path class="d" d="M226.89,371.46v-25.16h2.95v22.76h7.91v2.4h-10.86Z"/><path class="d" d="M249.85,363.06v1.18c0,2.89,.24,5.57,3.2,5.57,2.61,0,3.1-1.81,3.17-3.86h2.71c-.14,3.58-1.6,5.88-5.88,5.88-5.36,0-6.02-3.86-6.02-8.46,0-4.7,.24-9.85,6.23-9.85,5.64,0,5.78,4.49,5.78,8.73v.8h-9.19Zm6.33-4.11c-.17-1.81-.87-3.45-2.96-3.45-2.19,0-2.99,1.46-3.24,3.41-.07,.73-.14,1.46-.14,2.26h6.4c0-.73,0-1.46-.07-2.23Z"/><path class="d" d="M291.37,348.68v22.76h-2.95v-22.76h-5.82v-2.4h14.58v2.4h-5.81Z"/><path class="d" d="M318.34,371.44l-8.46-22.62v22.62h-2.71v-25.16h4.59l8.46,22.62v-22.62h2.71v25.16h-4.59Z"/><path class="d" d="M341.62,371.44h-6.16v-25.16h6.68c4.45,0,6.54,1.74,6.54,6.3,0,2.99-.83,4.77-3.76,5.71,3.41,.83,4.21,2.92,4.21,6.26,0,5.29-2.57,6.89-7.52,6.89Zm-.32-22.8h-2.92v8.6h3.1c3.06,0,4.25-1.5,4.25-4.49,0-3.27-1.57-4.11-4.42-4.11Zm.25,10.89h-3.17v9.54h2.68c3.27,0,5.05-.73,5.05-4.66,0-3.2-1.22-4.87-4.56-4.87Z"/><path class="d" d="M377.12,363.04v1.18c0,2.89,.24,5.57,3.2,5.57,2.61,0,3.1-1.81,3.17-3.86h2.71c-.14,3.58-1.6,5.88-5.88,5.88-5.36,0-6.02-3.86-6.02-8.46,0-4.7,.24-9.85,6.23-9.85,5.64,0,5.78,4.49,5.78,8.73v.8h-9.19Zm6.33-4.11c-.17-1.81-.87-3.45-2.96-3.45-2.19,0-2.99,1.46-3.24,3.41-.07,.73-.14,1.46-.14,2.26h6.4c0-.73,0-1.46-.07-2.23Z"/><path class="d" d="M406.14,371.43v-11.21c0-2.12,.03-4.63-2.72-4.63-2.57,0-3.55,2.92-3.55,5.29v10.55h-2.75v-13.71c0-1.29-.04-2.54-.14-3.83h2.72v2.4c.76-1.46,2.33-2.78,4.56-2.78,3.52,0,4.63,2.16,4.63,5.46v12.46h-2.75Z"/><path class="d" d="M440.73,371.84c-4.18,0-5.85-2.16-5.85-6.23h2.85c0,2.4,.59,4.04,3.06,4.04,2.99,0,3.44-2.47,3.44-6.58,0-2.99-.59-5.6-3.27-5.6-1.64,0-2.92,1.01-3.2,2.51h-2.71l.42-13.71h10.93v2.23h-8.25l-.35,8.63c1.08-1.22,2.19-1.81,3.93-1.81,4.66,0,5.4,3.72,5.4,7.72,0,4.87-.83,8.81-6.4,8.81Z"/><path class="d" d="M474.97,363.03v1.18c0,2.89,.24,5.57,3.2,5.57,2.61,0,3.1-1.81,3.17-3.86h2.71c-.14,3.58-1.6,5.88-5.88,5.88-5.36,0-6.02-3.86-6.02-8.46,0-4.7,.24-9.85,6.23-9.85,5.64,0,5.78,4.49,5.78,8.73v.8h-9.19Zm6.33-4.11c-.17-1.81-.87-3.45-2.96-3.45-2.19,0-2.99,1.46-3.24,3.41-.07,.73-.14,1.46-.14,2.26h6.4c0-.73,0-1.46-.07-2.23Zm-3.31-8.04h-2.02l3.55-4.91h3.13l-4.66,4.91Z"/><path class="d" d="M499.75,371.59c-3.31,0-3.97-1.29-3.97-4.35v-11.35h-2.61v-2.02h2.61v-3.24l2.75-1.22v4.45h3.13v2.02h-3.13v11.03c0,1.98,.49,2.47,1.99,2.47,.38,0,.8-.07,1.25-.14v2.16c-.66,.1-1.36,.17-2.02,.17Z"/><path class="d" d="M519.83,371.41l-.04-2.3c-1.22,1.78-2.51,2.61-4.7,2.61-3.13,0-4.52-2.3-4.53-5.18,0-5.53,4.59-5.88,9.05-5.92v-.77c0-2.09,0-4.39-2.72-4.38-1.6,0-2.92,.91-2.92,2.65v.17h-2.75v-.17c0-3.41,2.68-4.63,5.78-4.63,4.18,0,5.32,1.91,5.33,5.85v6.47c0,1.88,.04,3.72,.18,5.6h-2.68Zm-.21-8.87h-.7c-2.75,0-5.5,.52-5.5,3.76,0,1.71,.63,3.38,2.58,3.38,2.89,0,3.62-2.78,3.62-5.05v-2.09Z"/><path class="d" d="M545.37,356.79v15.38c0,4.32-1.91,6.13-6.26,6.13-3.58,0-5.46-1.53-5.5-5.08h2.92c0,1.88,.63,3.2,2.72,3.2,2.92,0,3.31-2.05,3.31-4.87v-2.4c-1.08,1.5-2.26,2.05-4.07,2.05-4.91,0-5.29-4.49-5.29-8.39,0-4.45,.56-9.33,5.32-9.33,2.12,0,3.31,.73,4.21,2.43v-2.05h2.75c0,.94-.1,1.95-.1,2.92Zm-6.09-1.25c-3.24,0-3.27,4.11-3.27,7.27,0,2.89,.07,6.47,3.1,6.47,3.62,0,3.52-4.56,3.51-7.2,0-2.92-.18-6.54-3.34-6.54Z"/><path class="d" d="M559.08,363.02v1.18c0,2.89,.24,5.57,3.2,5.57,2.61,0,3.1-1.81,3.17-3.86h2.71c-.14,3.58-1.6,5.88-5.88,5.88-5.36,0-6.02-3.86-6.02-8.46s.24-9.85,6.23-9.85c5.64,0,5.78,4.49,5.78,8.73v.8h-9.19Zm6.33-4.11c-.17-1.81-.87-3.45-2.96-3.45-2.19,0-2.99,1.46-3.24,3.41-.07,.73-.14,1.46-.14,2.26h6.4c0-.73,0-1.46-.07-2.23Z"/><path class="d" d="M583.31,371.75c-3.27,0-5.01-1.5-5.26-4.49-.03-.31-.03-.77-.03-1.22h2.75c0,.31,0,.7,.04,.97,.14,1.67,.77,2.75,2.58,2.75s2.64-1.01,2.64-2.72c0-2.12-1.15-2.75-3.17-3.83l-.9-.49c-2.02-1.08-3.55-2.05-3.55-4.7,0-3.13,2.26-4.56,5.22-4.56s4.56,1.15,4.98,3.79c.07,.42,.1,.9,.1,1.39h-2.75c0-.38-.04-.77-.07-1.11-.17-1.25-.73-2.16-2.4-2.16-1.43,0-2.33,.97-2.33,2.4,0,1.46,1.08,2.26,2.65,3.1l.84,.45c2.19,1.18,4.18,2.3,4.18,5.25,0,3.52-2.12,5.15-5.5,5.15Z"/></g></svg>