<?xml version="1.0" encoding="UTF-8"?><svg id="Calque_1" xmlns="http://www.w3.org/2000/svg" viewBox="0 0 173.3 38.1"><defs><style>.cls-1{fill:#1d1d1b;}</style></defs><path class="cls-1" d="M147.8,23.8h-.7v8.7h.7v-8.7Zm-7.5,2.6h-.7v6h.7v-6Zm0-2.5h-.8v.9h.8v-.9Zm-5.7,5.5c0,1.8,.1,3.1,2,3.1s1.7-.7,1.7-1.9h-.7c0,.8-.2,1.3-1.1,1.3s-1.2-.5-1.2-2.6,0-2.6,1.2-2.6,1,.6,1,1.3h.7c0-1.2-.4-1.8-1.7-1.8-1.9,0-2,1.7-2,3.2m-72.2-3h-.7v6h.7v-6Zm0-2.5h-.8v.9h.8v-.9Zm-3.8,2.5h-.9v.6h.9v4.1c0,.9,.2,1.4,1.2,1.4s.4,0,.6,0v-.6c-.2,0-.3,0-.4,0-.5,0-.7,0-.7-.9v-4.1h1.2v-.6h-1.2v-1.5l-.7,.3v1.2Zm-15.5,0h-.7v6h.7v-6Zm0-2.5h-.8v.9h.8v-.9Zm-12.2-2.9l-10.2,10.2H8.9l12.6-6.3c.2-.1,.3-.3,.3-.6h0v-2.2c0-2.5,.5-5.6,1.8-6.8,.5-.5,1-.6,1.4-.5,.5,.2,.9,1,.9,2,0,.3,.3,.6,.6,.6,.3,0,.6-.3,.6-.6,0-3.2,.7-5.7,1.8-6.8,.5-.5,1-.6,1.4-.5,.5,.2,.9,1,.9,2v9.4Zm1.1,.7c.1-.1,.2-.3,.2-.4V11.6c0-1.6-.6-2.7-1.6-3.2-.9-.4-1.9,0-2.7,.7-1.2,1.2-1.7,3.2-2,4.9-.2-.2-.4-.3-.6-.4-.9-.4-1.9,0-2.7,.7-1.9,1.9-2.1,6-2.2,7.7h0v1.6H7.8l6.6-6.6v2.2c0,.3,.2,.5,.4,.6,.2,0,.5,0,.7-.1l1.9-1.9c.1-.1,.2-.3,.2-.4V6.3c0-.3-.2-.5-.4-.6,0,0-.2,0-.2,0-.2,0-.3,0-.4,.2l-1.9,1.9c-.1,.1-.2,.3-.2,.4v3.5L5.9,20.2c-.2,.2-.2,.6,0,.9s.6,.2,.9,0L15.4,12.3c.1-.1,.2-.3,.2-.4v-3.5l.6-.6v9.4l-.6,.6v-2.2c0-.3-.2-.5-.4-.6-.2,0-.5,0-.7,.1L5.9,23.9c-.2,.2-.2,.4-.1,.7,0,.2,.3,.4,.6,.4h12.3l-12.6,6.3c-.3,.1-.4,.4-.3,.7,0,.3,.3,.5,.6,.5h14.9c.2,0,.3,0,.4-.2l10.6-10.6Zm6.4-8.9h2v-1h-5.4v1h2v7.6h1.3v-7.6Zm1.6,15.2c0,2-.1,3-.7,3.5-.3,.2-.8,.3-1.1,.3h-1.4v-7.4h1.2c.5,0,1.1,0,1.5,.5,.4,.6,.5,1.6,.5,3.1m0,3.8c.6-.6,.8-1.8,.8-3.7s-.1-3.1-.9-3.7c-.4-.3-1-.6-1.9-.6h-1.9v8.7h1.9c1,0,1.6-.3,2-.7m4.5-11.3h1.2v-4.3c0-1.1-.4-1.9-1.6-1.9s-1.1,.3-1.5,.8v-3.3h-1.2v8.7h1.2v-3.8c0-.8,.3-1.5,1-1.5s.8,.6,.8,1.4v4Zm2.5,5.8s0,0-.1,0c-.7,0-1.2,.4-1.5,.9v-.8h-.7c0,.4,0,.7,0,1.1v4.9h.7v-3.9c0-.9,.5-1.6,1.4-1.6s.1,0,.2,0v-.7Zm2.1-12.9l1.7-1.7h-1.3l-1.2,1.7h.8Zm-.9,3.4c0-.3,0-.5,0-.8,0-.6,.3-1,.9-1s.8,.4,.8,.9c0,.3,0,.5,0,.8h-1.8Zm0,.8h3c0-.3,0-.7,0-1,0-1.3-.4-2.3-2-2.3s-2.2,1.7-2.2,3.3,.2,3,2.2,3,2-.7,2.1-2.1h-1.2c0,.6-.1,1.2-.9,1.2s-.9-.7-.9-1.7v-.5Zm.4,11.4c0-.3,0-.5,0-.8,0-.8,.4-1.4,1.3-1.4s1.1,.7,1.2,1.4c0,.2,0,.5,0,.7h-2.6Zm0,.5h3.3c0-.3,0-.6,0-1,0-1.2-.4-2.3-1.9-2.3s-2.1,1.9-2.1,3.5,.3,2.8,2,2.8,1.9-.9,2-2h-.7c0,.8-.2,1.4-1.3,1.4s-1.3-1.2-1.3-2.1v-.3Zm6.7-16.1h.9l-1.3-1.7h-1.1l-1.3,1.7h.9l.9-1.1,.9,1.1Zm0,4.8c0,.6-.2,1.5-1,1.5s-.7-.6-.7-1.1c0-.9,.6-1.2,1.5-1.2h.3v.7Zm0,2.3h1.2c0-.7,0-1.3,0-2v-2.2c0-1.4-.4-2-1.9-2s-2.1,.4-2.1,1.7h1.2c0-.5,.3-.9,.8-.9,.8,0,.8,.7,.8,1.3v.3c-1.6,0-3,.1-3,2.1s.4,1.8,1.5,1.8,1.2-.3,1.6-.8v.7Zm.8,7.7h.7c0-1.2-.4-1.8-1.7-1.8-1.9,0-2,1.7-2,3.2s.1,3.1,2,3.1,1.7-.7,1.7-1.9h-.7c0,.8-.2,1.3-1.1,1.3s-1.2-.5-1.2-2.6,0-2.6,1.2-2.6,1,.6,1,1.3m3.6-7.6c.3,0,.5,0,.8,0v-.9c-.1,0-.3,0-.4,0-.5,0-.6-.2-.6-.8v-3.5h1v-.9h-1v-1.6l-1.2,.5v1.1h-.8v.9h.8v3.7c0,1.2,.3,1.6,1.5,1.6m4.3-5.1c0,0,.2,0,.2,0v-1.1s0,0,0,0c-.7,0-1.2,.3-1.5,.9v-.8h-1.2c0,.2,0,.9,0,1.1v5h1.2v-3.6c0-.9,.4-1.5,1.3-1.5m1.8,11.4c1.3,0,1.2,1.5,1.2,2.4v.7c0,.9-.1,2-1.3,2s-1.3-1.1-1.3-2v-.7c0-1,0-2.5,1.3-2.5m0-.6c-1.8,0-2.1,1.5-2.1,3.2s.2,3.1,2,3.1,2-1.1,2-3.1-.1-3.2-1.9-3.2m.4-9.4c0-.3,0-.5,0-.8,0-.6,.3-1,.9-1s.8,.4,.8,.9c0,.3,0,.5,0,.8h-1.8Zm0,.8h3c0-.3,0-.7,0-1,0-1.3-.4-2.3-2-2.3s-2.2,1.7-2.2,3.3,.2,3,2.2,3,2-.7,2.1-2.1h-1.2c0,.6-.1,1.2-.9,1.2s-.9-.7-.9-1.7v-.5Zm6.2,14.9h.7v-4.3c0-1.1-.4-1.9-1.6-1.9s-1.2,.4-1.6,1v-.8h-.7c0,.5,0,1,0,1.5v4.5h.7v-3.6c0-1,.3-2,1.4-2s1.1,1,1.1,1.8v3.8Zm4.7-12h2V11.8h-1.2v7.5l-2.4-7.5h-2v8.7h1.2v-7.5l2.4,7.5Zm4.1,9.1h-2.8l1.4-5,1.4,5Zm1.6,2.9l-2.6-8.7h-.8l-2.6,8.7h.7l.7-2.3h3.2l.7,2.3h.8Zm.6-14.3c0,.6-.2,1.5-1,1.5s-.7-.6-.7-1.1c0-.9,.6-1.2,1.5-1.2h.3v.7Zm0,2.3h1.2c0-.7,0-1.3,0-2v-2.2c0-1.4-.4-2-1.9-2s-2.1,.4-2.1,1.7h1.2c0-.5,.3-.9,.8-.9,.8,0,.8,.7,.8,1.3v.3c-1.6,0-3,.1-3,2.1s.4,1.8,1.5,1.8,1.2-.3,1.6-.8v.7Zm2.8,5.8c-.7,0-1.2,.4-1.5,.9v-.8h-.7c0,.4,0,.7,0,1.1v4.9h.7v-3.9c0-.9,.5-1.6,1.4-1.6s.1,0,.2,0v-.7s0,0-.1,0m1.6-5.8c.3,0,.5,0,.8,0v-.9c-.1,0-.3,0-.4,0-.5,0-.6-.2-.6-.8v-3.5h1v-.9h-1v-1.6l-1.2,.5v1.1h-.8v.9h.8v3.7c0,1.2,.3,1.6,1.5,1.6m2.1,5.9h-1.2v-1.5l-.7,.3v1.2h-.9v.6h.9v4.1c0,.9,.2,1.4,1.2,1.4s.4,0,.6,0v-.6c-.2,0-.3,0-.4,0-.5,0-.7,0-.7-.9v-4.1h1.2v-.6Zm-.4-6h1.2v-6h-1.2v6Zm0-7.4h1.3v-1.2h-1.3v1.2Zm2.3,14.1v-3.4h-.7v8.7h.7v-3.6c0-1,.4-2,1.4-2s1.1,1,1.1,1.8v3.8h.7v-4.3c0-1.1-.4-1.9-1.6-1.9s-1.2,.3-1.5,.9m3.3-9.1c0,.7,0,1.7-.9,1.7s-1-1-1-1.7v-1c0-.7,0-1.9,1-1.9s.9,1,.9,1.8v1.1Zm1.3-.8c0-1.8-.2-3-2.2-3s-2.3,1.5-2.3,3.2,.2,3.1,2.2,3.1,2.2-1.3,2.2-3.3m2,14.6c-1.1,0-1.1-1-1.1-1.8v-3.8h-.7v4.2c0,1.1,.4,1.9,1.7,1.9s1.2-.3,1.6-.9v.8h.7c0-.5,0-1,0-1.5v-4.5h-.7v3.6c0,1-.2,2-1.4,2m2.3-11.5h1.2v-4.3c0-1.1-.4-1.9-1.6-1.9s-1.2,.4-1.5,.9v-.7h-1.3c0,.4,0,.8,0,1.1v4.9h1.2v-3.9c0-.6,.3-1.5,1-1.5s.8,.7,.8,1.4v4Zm2,6.8v-.8h-.7c0,.4,0,.7,0,1.1v4.9h.7v-3.9c0-.9,.5-1.6,1.4-1.6s.1,0,.2,0v-.7s0,0-.1,0c-.7,0-1.2,.4-1.5,.9m3.3-9c0,.6-.2,1.5-1,1.5s-.7-.6-.7-1.1c0-.9,.6-1.2,1.5-1.2h.3v.7Zm0,2.3h1.2c0-.7,0-1.3,0-2v-2.2c0-1.4-.4-2-1.9-2s-2.1,.4-2.1,1.7h1.2c0-.5,.3-.9,.8-.9,.8,0,.8,.7,.8,1.3v.3c-1.6,0-3,.1-3,2.1s.4,1.8,1.5,1.8,1.2-.3,1.6-.8v.7Zm2.5,0h1.2V11.8h-1.2v8.7Zm3.7,12h1.1v-8.7h-.7v8l-3.4-8h-1.1v8.7h.7v-8l3.4,8Zm4.7-15c0,1.1,0,2.2-1,2.2s-.9-1.2-.9-2.3,0-2.3,.9-2.3,1,1.2,1,2.4m0,3h1.2c0-.2,0-.9,0-1.1v-7.6h-1.2v3.2c-.3-.5-.8-.7-1.4-.7-1.5,0-1.7,1.5-1.7,3.2s.1,3.1,1.8,3.1,1.1-.2,1.4-.8v.7Zm1,9.6c0,.9-.3,1.9-1.5,1.9s-1-.6-1-1.3c0-1.3,1.2-1.4,2.3-1.4h.2v.7Zm0,2.4h.7c0-.6,0-1.3,0-1.9v-2.3c0-1.3-.3-2-1.8-2s-1.9,.5-1.9,1.5h.7c0-.7,.6-1,1.2-1,1.1,0,1.1,.9,1.1,1.7v.2c-1.5,0-3.2,.1-3.2,2s.5,1.8,1.6,1.8,1.2-.3,1.7-.9v.8Zm2.5-15.6c0-.3,0-.5,0-.8,0-.6,.3-1,.9-1s.8,.4,.8,.9c0,.3,0,.5,0,.8h-1.8Zm0,.8h3c0-.3,0-.7,0-1,0-1.3-.4-2.3-2-2.3s-2.2,1.7-2.2,3.3,.2,3,2.2,3,2-.7,2.1-2.1h-1.2c0,.6-.1,1.2-.9,1.2s-.9-.7-.9-1.7v-.5Zm2.9,14.9h.7c0-.5,0-1,0-1.5v-4.5h-.7v3.6c0,1-.2,2-1.4,2s-1.1-1-1.1-1.8v-3.8h-.7v4.2c0,1.1,.4,1.9,1.7,1.9s1.2-.3,1.6-.9v.8Zm2-5.5h2.2l-2.4,4.8v.6h3.1v-.6h-2.4l2.4-4.8v-.6h-3v.6Zm6-9c0,1.3-.7,1.5-1.6,1.5h-.8v-3h.9c1.1,0,1.5,.4,1.5,1.5m-1.5-2.5h-.9v-2.7h.9c.8,0,1.4,.2,1.4,1.3s-.4,1.4-1.4,1.4m1.4,.4c1-.3,1.4-.9,1.4-2,0-1.6-.8-2.2-2.4-2.2h-2.6v8.7h2.2c1.7,0,2.8-.4,2.8-2.4s-.3-1.9-1.5-2.2m0,18.9l2.4-8.4h-.7l-1.4,5.1-1.4-5.1h-.7l1.8,6.1-.7,2.3h.7Zm5.4-19.3c0,0,.2,0,.2,0v-1.1s0,0,0,0c-.7,0-1.2,.3-1.5,.9v-.8h-1.2c0,.2,0,.9,0,1.1v5h1.2v-3.6c0-.9,.4-1.5,1.3-1.5m2.2,1.4c0-.3,0-.5,0-.8,0-.6,.3-1,.9-1s.8,.4,.8,.9c0,.3,0,.5,0,.8h-1.8Zm0,.8h3c0-.3,0-.7,0-1,0-1.3-.4-2.3-2-2.3s-2.2,1.7-2.2,3.3,.2,3,2.2,3,2-.7,2.1-2.1h-1.2c0,.6-.1,1.2-.9,1.2s-.9-.7-.9-1.7v-.5Zm4.8,9.2c.9,0,1.1,.7,1.2,1.4,0,.2,0,.5,0,.7h-2.6c0-.3,0-.5,0-.8,0-.8,.4-1.4,1.3-1.4m0-.6c-2.1,0-2.1,1.9-2.1,3.5s.3,2.8,2,2.8,1.9-.9,2-2h-.7c0,.8-.2,1.4-1.3,1.4s-1.3-1.2-1.3-2.1v-.3h3.3c0-.3,0-.6,0-1,0-1.2-.4-2.3-1.9-2.3m1.4-5.8c.3,0,.5,0,.8,0v-.9c-.1,0-.3,0-.4,0-.5,0-.6-.2-.6-.8v-3.5h1v-.9h-1v-1.6l-1.2,.5v1.1h-.8v.9h.8v3.7c0,1.2,.3,1.6,1.5,1.6m4.5-2.3c0,.6-.2,1.5-1,1.5s-.7-.6-.7-1.1c0-.9,.6-1.2,1.5-1.2h.3v.7Zm0,2.3h1.2c0-.7,0-1.3,0-2v-2.2c0-1.4-.4-2-1.9-2s-2.1,.4-2.1,1.7h1.2c0-.5,.3-.9,.8-.9,.8,0,.8,.7,.8,1.3v.3c-1.6,0-3,.1-3,2.1s.4,1.8,1.5,1.8,1.2-.3,1.6-.8v.7Zm5.5-3.1c0,.8,0,2.2-1,2.2s-.9-1.1-.9-2.1,0-2.4,.9-2.4,1,1.2,1,2.3m1.2-2c0-.3,0-.7,0-1h-1.2v.7c-.3-.6-.8-.9-1.5-.9-1.7,0-1.8,1.7-1.8,3.3s.1,2.8,1.8,2.8,1-.2,1.4-.7v.9c0,.9-.2,1.5-1,1.5s-.8-.5-.8-1h-1.3c0,1.3,.7,1.8,2,1.8s2.3-.5,2.3-2.1v-5.3Zm4.4,5.1h1.2v-4.3c0-1.1-.4-1.9-1.6-1.9s-1.2,.4-1.5,.9v-.7h-1.3c0,.4,0,.8,0,1.1v4.9h1.2v-3.9c0-.6,.3-1.5,1-1.5s.8,.7,.8,1.4v4Zm5.5-3.6h-1.8c0-.3,0-.5,0-.8,0-.6,.3-1,.9-1s.8,.4,.8,.9c0,.3,0,.5,0,.8m1.2,.8c0-.3,0-.7,0-1,0-1.3-.4-2.3-2-2.3s-2.2,1.7-2.2,3.3,.2,3,2.2,3,2-.7,2.1-2.1h-1.2c0,.6-.1,1.2-.9,1.2s-.9-.7-.9-1.7v-.5h3Z"/></svg>